<svg width="13" height="17" viewBox="0 0 13 17" fill="none" xmlns="http://www.w3.org/2000/svg">
<path d="M3.4926 6.41548C3.02692 6.09167 2.65771 5.67341 2.38495 5.16071C2.11219 4.64802 1.97582 4.10159 1.97582 3.52143C1.97582 2.55 2.32175 1.72024 3.01362 1.03214C3.70549 0.344048 4.53041 0 5.48838 0C6.44635 0 7.27127 0.344048 7.96314 1.03214C8.65501 1.72024 9.00094 2.55 9.00094 3.52143C9.00094 4.0881 8.87454 4.63115 8.62174 5.1506C8.36895 5.67004 7.98975 6.09167 7.48415 6.41548V3.80476C7.48415 3.2381 7.29123 2.76587 6.90538 2.3881C6.51953 2.01032 6.04719 1.82143 5.48838 1.82143C4.92956 1.82143 4.45723 2.01032 4.07138 2.3881C3.68553 2.76587 3.4926 3.2381 3.4926 3.80476V6.41548ZM5.08922 17C4.86304 17 4.65015 16.9562 4.45058 16.8685C4.251 16.7808 4.07803 16.6627 3.93167 16.5143L0 12.5476L0.478986 12.0417C0.638648 11.8798 0.801636 11.7752 0.96795 11.728C1.13426 11.6808 1.33052 11.6774 1.5567 11.7179L4.09134 12.1631V3.84524C4.09134 3.44048 4.22439 3.10317 4.49049 2.83333C4.75659 2.56349 5.08922 2.42857 5.48838 2.42857C5.88753 2.42857 6.22016 2.56349 6.48627 2.83333C6.75237 3.10317 6.88542 3.44048 6.88542 3.84524V8.29762H7.085C7.25796 8.29762 7.44424 8.31786 7.64381 8.35833C7.84339 8.39881 8.03632 8.46627 8.22259 8.56071L11.1564 9.87619C11.5289 10.0381 11.7983 10.3012 11.9647 10.6655C12.131 11.0298 12.1809 11.421 12.1143 11.8393L11.4358 15.6643C11.3693 16.0556 11.183 16.376 10.877 16.6256C10.5709 16.8752 10.225 17 9.83917 17H5.08922Z" fill="#333333"/>
</svg>
