<svg width="30" height="30" viewBox="0 0 30 30" fill="none" xmlns="http://www.w3.org/2000/svg">
<path d="M14.1665 7.5H15.8332V22.5H14.1665V7.5Z" fill="#FF9B00"/>
<path d="M7.5 12.5H9.16667V22.5H7.5V12.5Z" fill="#FF9B00"/>
<path d="M20.833 17.5H22.4997V22.5H20.833V17.5Z" fill="#FF9B00"/>
<path fill-rule="evenodd" clip-rule="evenodd" d="M3.33333 0H26.6667C28.5 0 30 1.5 30 3.33333V26.6667C30 28.5 28.5 30 26.6667 30H3.33333C1.5 30 0 28.5 0 26.6667V3.33333C0 1.5 1.5 0 3.33333 0ZM6.66667 23.3333H9.99967V23.3334H6.66634V11.6668H6.66667V23.3333ZM13.3343 23.3333H16.6667V6.66671H16.6676V23.3334H13.3343V23.3333ZM23.3333 23.3333H23.3341V16.6666H20.0008V16.6667H23.3333V23.3333ZM17.501 5.83337H12.501V24.1667H17.501V5.83337ZM5.83301 10.8334H10.833V24.1668H5.83301V10.8334ZM24.1675 15.8333H19.1675V24.1666H24.1675V15.8333Z" fill="#FF6100"/>
</svg>
