<svg width="17" height="11" viewBox="0 0 17 11" fill="none" xmlns="http://www.w3.org/2000/svg">
<path d="M8.5 8.47424C9.41439 8.47424 10.1903 8.17674 10.8278 7.58174C11.4653 6.98674 11.7841 6.26253 11.7841 5.40909C11.7841 4.55566 11.4653 3.83144 10.8278 3.23644C10.1903 2.64144 9.41439 2.34394 8.5 2.34394C7.58561 2.34394 6.80966 2.64144 6.17216 3.23644C5.53466 3.83144 5.21591 4.55566 5.21591 5.40909C5.21591 6.26253 5.53466 6.98674 6.17216 7.58174C6.80966 8.17674 7.58561 8.47424 8.5 8.47424ZM8.5 7.42849C7.8947 7.42849 7.38276 7.23316 6.9642 6.8425C6.54564 6.45184 6.33636 5.97404 6.33636 5.40909C6.33636 4.84414 6.54564 4.36634 6.9642 3.97568C7.38276 3.58503 7.8947 3.3897 8.5 3.3897C9.1053 3.3897 9.61724 3.58503 10.0358 3.97568C10.4544 4.36634 10.6636 4.84414 10.6636 5.40909C10.6636 5.97404 10.4544 6.45184 10.0358 6.8425C9.61724 7.23316 9.1053 7.42849 8.5 7.42849ZM8.5 10.8182C6.6197 10.8182 4.9197 10.3193 3.4 9.32167C1.8803 8.32399 0.74697 7.0198 0 5.40909C0.74697 3.79838 1.8803 2.49419 3.4 1.49652C4.9197 0.498838 6.6197 0 8.5 0C10.3803 0 12.0803 0.498838 13.6 1.49652C15.1197 2.49419 16.253 3.79838 17 5.40909C16.253 7.0198 15.1197 8.32399 13.6 9.32167C12.0803 10.3193 10.3803 10.8182 8.5 10.8182Z" fill="#333333"/>
</svg>
