<svg width="18" height="16" viewBox="0 0 18 16" fill="none" xmlns="http://www.w3.org/2000/svg">
<path d="M2.82353 5.21739H7.23529V3.47826H2.82353V5.21739ZM2.82353 8.69565H7.23529V6.95652H2.82353V8.69565ZM2.82353 12.1739H7.23529V10.4348H2.82353V12.1739ZM11.25 10.4348L15.6176 6.13043L14.3603 4.8913L11.25 7.97826L9.99265 6.73913L8.75735 7.97826L11.25 10.4348ZM1.32353 15.6522C0.970588 15.6522 0.661765 15.5217 0.397059 15.2609C0.132353 15 0 14.6957 0 14.3478V1.30435C0 0.956522 0.132353 0.652174 0.397059 0.391304C0.661765 0.130435 0.970588 0 1.32353 0H16.6765C17.0294 0 17.3382 0.130435 17.6029 0.391304C17.8676 0.652174 18 0.956522 18 1.30435V14.3478C18 14.6957 17.8676 15 17.6029 15.2609C17.3382 15.5217 17.0294 15.6522 16.6765 15.6522H1.32353ZM1.32353 14.3478H16.6765V1.30435H1.32353V14.3478ZM1.32353 14.3478V1.30435H16.6765V14.3478H1.32353Z" fill="#333333"/>
</svg>
