<svg width="18" height="15" viewBox="0 0 18 15" fill="none" xmlns="http://www.w3.org/2000/svg">
<path d="M5.14286 14.5714L4.22143 13.65L6.06429 11.8071C4.52143 11.9071 3.125 11.4036 1.875 10.2964C0.625 9.18929 0 7.75714 0 6C0 4.32857 0.582143 2.91071 1.74643 1.74643C2.91071 0.582143 4.32857 0 6 0H8.57143V1.28571H6C4.7 1.28571 3.58929 1.74643 2.66786 2.66786C1.74643 3.58929 1.28571 4.7 1.28571 6C1.28571 7.34286 1.75357 8.44286 2.68929 9.3C3.625 10.1571 4.77143 10.5714 6.12857 10.5429L4.22143 8.63571L5.14286 7.71429L8.57143 11.1429L5.14286 14.5714ZM10.2857 6V0H18V6H10.2857ZM11.5714 4.71429H16.7143V1.28571H11.5714V4.71429ZM10.2857 13.7143V7.71429H18V13.7143H10.2857Z" fill="#333333"/>
</svg>
