<svg width="18" height="13" viewBox="0 0 18 13" fill="none" xmlns="http://www.w3.org/2000/svg">
<path d="M0 13V11.0322C0 10.5437 0.122172 10.1006 0.366516 9.7029C0.61086 9.30515 0.950226 9.00859 1.38462 8.8132C2.37557 8.36661 3.2681 8.04563 4.06222 7.85024C4.85634 7.65486 5.67421 7.55717 6.51584 7.55717C7.35747 7.55717 8.17195 7.65486 8.95928 7.85024C9.74661 8.04563 10.6357 8.36661 11.6267 8.8132C12.0611 9.00859 12.4038 9.30515 12.655 9.7029C12.9061 10.1006 13.0317 10.5437 13.0317 11.0322V13H0ZM6.51584 6.28019C5.61991 6.28019 4.88688 5.98712 4.31674 5.40097C3.74661 4.81482 3.46154 4.06119 3.46154 3.1401C3.46154 2.219 3.74661 1.46538 4.31674 0.879227C4.88688 0.293076 5.61991 0 6.51584 0C7.41177 0 8.1448 0.293076 8.71493 0.879227C9.28507 1.46538 9.57014 2.219 9.57014 3.1401C9.57014 4.06119 9.28507 4.81482 8.71493 5.40097C8.1448 5.98712 7.41177 6.28019 6.51584 6.28019ZM13.8462 3.1401C13.8462 4.06119 13.5611 4.81482 12.991 5.40097C12.4208 5.98712 11.6878 6.28019 10.7919 6.28019C10.6425 6.28019 10.4762 6.26973 10.293 6.24879C10.1097 6.22786 9.94344 6.18948 9.79412 6.13366C10.1199 5.78476 10.3676 5.35561 10.5373 4.84622C10.707 4.33682 10.7919 3.76812 10.7919 3.1401C10.7919 2.51208 10.707 1.95733 10.5373 1.47585C10.3676 0.994364 10.1199 0.551262 9.79412 0.146538C9.94344 0.10467 10.1097 0.0697801 10.293 0.0418681C10.4762 0.0139561 10.6425 0 10.7919 0C11.6878 0 12.4208 0.293076 12.991 0.879227C13.5611 1.46538 13.8462 2.219 13.8462 3.1401ZM14.2534 13V11.0322C14.2534 10.153 14.0362 9.43076 13.6018 8.86554C13.1674 8.30032 12.5973 7.84326 11.8914 7.49436C12.8281 7.60601 13.7104 7.77 14.5385 7.98631C15.3665 8.20263 16.0385 8.45035 16.5543 8.72947C17.0023 8.99463 17.3552 9.3226 17.6131 9.71337C17.871 10.1041 18 10.5437 18 11.0322V13H14.2534Z" fill="#333333"/>
</svg>
