<svg width="15" height="15" viewBox="0 0 15 15" fill="none" xmlns="http://www.w3.org/2000/svg">
<path d="M4.16848 5.45496L6.93766 8.24164C7.04258 8.34723 7.17146 8.40002 7.32468 8.40002C7.48063 8.40002 7.6083 8.34723 7.70754 8.24164L10.4767 5.45496C10.5845 5.34653 10.6383 5.21663 10.6383 5.06538C10.6383 4.917 10.5844 4.78863 10.4767 4.68017L10.1577 4.35918C10.0556 4.25077 9.92797 4.19643 9.77486 4.19643C9.62173 4.19643 9.49413 4.25077 9.392 4.35918L8.14141 5.61336V0.500775C8.14141 0.352494 8.08827 0.23186 7.9819 0.139053C7.87554 0.0463364 7.74722 2.37065e-05 7.59696 2.37065e-05H7.05248C6.90217 2.37065e-05 6.7739 0.0463514 6.66754 0.139053C6.56118 0.23183 6.50794 0.352494 6.50794 0.500775V5.61335L5.25737 4.35917C5.15534 4.25075 5.02773 4.19642 4.87447 4.19642C4.72426 4.19642 4.59516 4.25075 4.48747 4.35917L4.1685 4.68015C4.06357 4.79149 4.01106 4.91986 4.01106 5.06537C4.01105 5.21377 4.06355 5.34362 4.16848 5.45496Z" fill="white"/>
<path fill-rule="evenodd" clip-rule="evenodd" d="M0.736364 4.97784C1.14305 4.97784 1.47273 5.29124 1.47273 5.67784V11.9778C1.47273 12.3644 1.80241 12.6778 2.20909 12.6778H12.5182C12.9249 12.6778 13.2545 12.3644 13.2545 11.9778V5.67784C13.2545 5.29124 13.5842 4.97784 13.9909 4.97784C14.3976 4.97784 14.7273 5.29124 14.7273 5.67784V11.9778C14.7273 13.1376 13.7382 14.0778 12.5182 14.0778H2.20909C0.989044 14.0778 0 13.1376 0 11.9778V5.67784C0 5.29124 0.329681 4.97784 0.736364 4.97784Z" fill="white"/>
</svg>
