<svg width="14" height="18" viewBox="0 0 14 18" fill="none" xmlns="http://www.w3.org/2000/svg">
<path fill-rule="evenodd" clip-rule="evenodd" d="M0.39375 17.1062C0.65625 17.3687 0.9625 17.5 1.3125 17.5H12.6875C13.0375 17.5 13.3437 17.3687 13.6062 17.1062C13.8687 16.8438 14 16.5375 14 16.1875V4.79063L9.20937 0H1.3125C0.9625 0 0.65625 0.13125 0.39375 0.39375C0.13125 0.65625 0 0.9625 0 1.3125V16.1875C0 16.5375 0.13125 16.8438 0.39375 17.1062ZM12.6219 5.38125H8.55312V1.3125L12.6219 5.38125ZM5.54059 10.9279C5.25472 11.2242 4.90597 11.3723 4.49432 11.3723C4.08267 11.3723 3.73391 11.2242 3.44805 10.9279C3.16218 10.6317 3.01925 10.2703 3.01925 9.84375C3.01925 9.41719 3.16218 9.05579 3.44805 8.75957C3.73391 8.46335 4.08267 8.31523 4.49432 8.31523C4.90597 8.31523 5.25472 8.46335 5.54059 8.75957C5.82646 9.05579 5.96939 9.41719 5.96939 9.84375C5.96939 10.2703 5.82646 10.6317 5.54059 10.9279ZM2.55043 11.8581C3.08404 12.411 3.73201 12.6875 4.49432 12.6875C5.11179 12.6875 5.65494 12.5058 6.12376 12.1424C6.59258 11.7791 6.89941 11.3012 7.04425 10.7087H7.41016L8.22202 11.55L9.18253 10.5547L10.143 11.55L11.8125 9.82005L10.9778 8.95508H7.04425C6.86892 8.38633 6.56209 7.91829 6.12376 7.55098C5.68543 7.18366 5.14228 7 4.49432 7C3.73201 7 3.08404 7.27648 2.55043 7.82943C2.01681 8.38238 1.75 9.05382 1.75 9.84375C1.75 10.6337 2.01681 11.3051 2.55043 11.8581Z" fill="#333333"/>
</svg>
