<svg width="14" height="17" viewBox="0 0 14 17" fill="none" xmlns="http://www.w3.org/2000/svg">
<path fill-rule="evenodd" clip-rule="evenodd" d="M1.68938 11.5919C2.81563 13.2565 4.51917 15.0592 6.8 17C9.08083 15.0592 10.7844 13.2565 11.9106 11.5919C13.0369 9.92729 13.6 8.38667 13.6 6.97C13.6 4.845 12.9165 3.15208 11.5494 1.89125C10.1823 0.630417 8.59917 0 6.8 0C5.00083 0 3.41771 0.630417 2.05063 1.89125C0.683542 3.15208 0 4.845 0 6.97C0 8.38667 0.563125 9.92729 1.68938 11.5919ZM3.4 10.625H5.54895V4.25H3.4V10.625ZM10.7122 4.80713C10.2036 4.43571 9.4966 4.25 8.59112 4.25H6.10727V10.625H8.25622V8.71615H8.8516C9.65165 8.71615 10.2873 8.51827 10.7587 8.12249C11.2362 7.72672 11.475 7.1635 11.475 6.43284C11.475 5.72045 11.2207 5.17855 10.7122 4.80713ZM9.28884 6.43284C9.28884 6.97475 9.06867 7.2457 8.62833 7.2457H8.25622V5.70218H8.55391C8.82059 5.70218 9.00975 5.76612 9.12138 5.89398C9.23302 6.02185 9.28884 6.20147 9.28884 6.43284Z" fill="#333333"/>
</svg>
