<svg width="17" height="17" viewBox="0 0 17 17" fill="none" xmlns="http://www.w3.org/2000/svg">
<path d="M3.77778 9.18919V7.81081H13.2222V9.18919H3.77778ZM3.77778 13.3243V11.9459H10.3653V13.3243H3.77778ZM1.41667 17C1.03889 17 0.708333 16.8622 0.425 16.5865C0.141667 16.3108 0 15.9892 0 15.6216V1.37838C0 1.01081 0.141667 0.689189 0.425 0.413514C0.708333 0.137838 1.03889 0 1.41667 0H2.95139H3.30556H4.01389H4.48611H12.5139H12.9861H13.4583H14.0486H15.5833C15.9611 0 16.2917 0.137838 16.575 0.413514C16.8583 0.689189 17 1.01081 17 1.37838V15.6216C17 15.9892 16.8583 16.3108 16.575 16.5865C16.2917 16.8622 15.9611 17 15.5833 17H1.41667ZM1.41667 15.6216H15.5833V5.74324H1.41667V15.6216Z" fill="#333333"/>
</svg>
