<svg width="17" height="17" viewBox="0 0 17 17" fill="none" xmlns="http://www.w3.org/2000/svg">
<path fill-rule="evenodd" clip-rule="evenodd" d="M0.240516 11.3043C0.400861 11.4646 0.595565 11.5448 0.824628 11.5448H2.94747C3.37996 10.4194 4.47109 9.62067 5.74878 9.62067H8.79603V4.75535C8.79603 4.52629 8.71586 4.33159 8.55551 4.17124C8.39517 4.0109 8.20047 3.93073 7.9714 3.93073H7.00934V2.61132C7.00934 1.88748 6.75508 1.2713 6.24656 0.762781C5.73804 0.25426 5.12185 0 4.39802 0C3.67418 0 3.05799 0.25426 2.54947 0.762781C2.04095 1.2713 1.78669 1.88748 1.78669 2.61132V3.93073H0.824628C0.595565 3.93073 0.400861 4.0109 0.240516 4.17124C0.0801721 4.33159 0 4.52629 0 4.75535V10.7202C0 10.9492 0.0801721 11.1439 0.240516 11.3043ZM6.18471 2.61132V3.93073H2.61132V2.61132C2.61132 2.11654 2.78541 1.69507 3.13359 1.34689C3.48176 0.998716 3.90324 0.824628 4.39802 0.824628C4.89279 0.824628 5.31427 0.998716 5.66244 1.34689C6.01062 1.69507 6.18471 2.11654 6.18471 2.61132Z" fill="#333333"/>
<path fill-rule="evenodd" clip-rule="evenodd" d="M5.79858 10.1704C4.41787 10.1704 3.29858 11.2897 3.29858 12.6704V14.2674C3.29858 15.6481 4.41787 16.7674 5.79858 16.7674H14.5001C15.8808 16.7674 17.0001 15.6481 17.0001 14.2674V12.6704C17.0001 11.2897 15.8808 10.1704 14.5001 10.1704H5.79858ZM6.20865 14.2099L6.60078 14.4256L6.9733 13.7688L7.34583 14.4256L7.73796 14.2099L7.34583 13.5433H8.11048V13.1021H7.34583L7.73796 12.4355L7.34583 12.2198L6.9733 12.8767L6.60078 12.2198L6.20865 12.4355L6.60078 13.1021H5.83612V13.5433H6.60078L6.20865 14.2099ZM9.3849 14.1903L9.77704 14.4256L10.1496 13.7688L10.5221 14.4256L10.9142 14.1903L10.5221 13.5237H11.2867V13.0825H10.5221L10.9142 12.4159L10.5221 12.2002L10.1496 12.8571L9.77704 12.2002L9.3849 12.4159L9.77704 13.0825H9.01238V13.5237H9.77704L9.3849 14.1903ZM12.5612 14.1903L12.9533 14.4256L13.3258 13.7688L13.6983 14.4256L14.0905 14.1903L13.6983 13.5237H14.463V13.0825H13.6983L14.0905 12.4159L13.6983 12.2002L13.3258 12.8571L12.9533 12.2002L12.5612 12.4159L12.9533 13.0825H12.1886V13.5237H12.9533L12.5612 14.1903Z" fill="#333333"/>
</svg>
