<svg width="15" height="15" viewBox="0 0 15 15" fill="none" xmlns="http://www.w3.org/2000/svg">
<path d="M4.5 15H1.15385C0.846154 15 0.576923 14.8814 0.346154 14.6442C0.115385 14.4071 0 14.1218 0 13.7885V10.4038C0.564103 10.3397 1.04808 10.1186 1.45192 9.74039C1.85577 9.36218 2.05769 8.89744 2.05769 8.34615C2.05769 7.79487 1.85577 7.33013 1.45192 6.95192C1.04808 6.57372 0.564103 6.35256 0 6.28846V2.90385C0 2.60897 0.115385 2.34295 0.346154 2.10577C0.576923 1.86859 0.846154 1.75 1.15385 1.75H4.53846C4.67949 1.23718 4.92308 0.817308 5.26923 0.490385C5.61539 0.163462 6.04487 0 6.55769 0C7.05769 0 7.50641 0.163462 7.90385 0.490385C8.30128 0.817308 8.57051 1.23718 8.71154 1.75H12.0962C12.391 1.75 12.6571 1.86859 12.8942 2.10577C13.1314 2.34295 13.25 2.60897 13.25 2.90385V6.28846C13.7628 6.42949 14.1827 6.69872 14.5096 7.09615C14.8365 7.49359 15 7.94231 15 8.44231C15 8.95513 14.8365 9.38461 14.5096 9.73077C14.1827 10.0769 13.7628 10.3205 13.25 10.4615V13.8462C13.25 14.1538 13.1314 14.4231 12.8942 14.6538C12.6571 14.8846 12.391 15 12.0962 15H8.75C8.6859 14.3846 8.44231 13.8878 8.01923 13.5096C7.59615 13.1314 7.10897 12.9423 6.55769 12.9423C6.07051 12.9423 5.62179 13.1314 5.21154 13.5096C4.80128 13.8878 4.5641 14.3846 4.5 15Z" fill="#333333"/>
</svg>
