<svg width="17" height="17" viewBox="0 0 17 17" fill="none" xmlns="http://www.w3.org/2000/svg">
<path d="M8.7125 10.5613L13.5575 5.71625L12.665 4.845L8.73375 8.7975L6.6725 6.73625L5.78 7.62875L8.7125 10.5613ZM3.825 14.45C3.485 14.45 3.1875 14.3225 2.9325 14.0675C2.6775 13.8125 2.55 13.515 2.55 13.175V1.275C2.55 0.935 2.6775 0.6375 2.9325 0.3825C3.1875 0.1275 3.485 0 3.825 0H15.725C16.065 0 16.3625 0.1275 16.6175 0.3825C16.8725 0.6375 17 0.935 17 1.275V13.175C17 13.515 16.8725 13.8125 16.6175 14.0675C16.3625 14.3225 16.065 14.45 15.725 14.45H3.825ZM1.275 17C0.935 17 0.6375 16.8725 0.3825 16.6175C0.1275 16.3625 0 16.065 0 15.725V2.55H1.275V15.725H14.45V17H1.275Z" fill="#333333"/>
</svg>
