<svg width="30" height="25" viewBox="0 0 30 25" fill="none" xmlns="http://www.w3.org/2000/svg">
<path fill-rule="evenodd" clip-rule="evenodd" d="M2.72724 0H21.818C23.3179 0 24.5452 1.22726 24.5452 2.72724V3.29355L23.1826 2.72727L16.6202 5.45449H5.45449V8.18173H13.6372V10.909H5.45449V13.6362H13.6811C13.7635 14.5679 13.9603 15.4829 14.2581 16.3635H5.45449V19.0907H14.9998V18.1034C16.5551 21.0987 19.3203 23.4834 22.6574 24.4122C22.3927 24.4985 22.1105 24.5452 21.818 24.5452H2.72724C1.22726 24.5452 0 23.3179 0 21.818V2.72724C0 1.22726 1.22726 0 2.72724 0Z" fill="#FF6100"/>
<path d="M23.1823 5.45435L16.3642 8.42952V12.8923C16.3642 17.0203 19.2733 20.8806 23.1823 21.8178C27.0914 20.8806 30.0005 17.0203 30.0005 12.8923V8.42952L23.1823 5.45435ZM21.6672 17.3551L18.6369 14.3799L19.7051 13.3311L21.6672 15.2501L26.6596 10.3485L27.7277 11.4047L21.6672 17.3551Z" fill="#FF9B00"/>
</svg>
