<svg width="14" height="17" viewBox="0 0 14 17" fill="none" xmlns="http://www.w3.org/2000/svg">
<path fill-rule="evenodd" clip-rule="evenodd" d="M0.3825 16.6175C0.6375 16.8725 0.935 17 1.275 17H12.325C12.665 17 12.9625 16.8725 13.2175 16.6175C13.4725 16.3625 13.6 16.065 13.6 15.725V4.65375L8.94625 0H1.275C0.935 0 0.6375 0.1275 0.3825 0.3825C0.1275 0.6375 0 0.935 0 1.275V15.725C0 16.065 0.1275 16.3625 0.3825 16.6175ZM12.2612 5.2275H8.30875V1.275L12.2612 5.2275ZM8.93773 7.35713C8.42003 6.98571 7.7003 6.8 6.77853 6.8H4.25V13.175H6.43761V11.2662H7.0437C7.85813 11.2662 8.50526 11.0683 8.98508 10.6725C9.47122 10.2767 9.71429 9.7135 9.71429 8.98284C9.71429 8.27045 9.45543 7.72854 8.93773 7.35713ZM7.4888 8.98284C7.4888 9.52475 7.26467 9.7957 6.81641 9.7957H6.43761V8.25218H6.74065C7.01213 8.25218 7.20469 8.31612 7.31833 8.44398C7.43197 8.57185 7.4888 8.75147 7.4888 8.98284Z" fill="#333333"/>
</svg>
