<svg width="13" height="15" viewBox="0 0 13 15" fill="none" xmlns="http://www.w3.org/2000/svg">
<path d="M1.125 15C0.825 15 0.5625 14.8875 0.3375 14.6625C0.1125 14.4375 0 14.175 0 13.875V2.56875H1.125V13.875H10.0125V15H1.125ZM3.375 12.75C3.075 12.75 2.8125 12.6375 2.5875 12.4125C2.3625 12.1875 2.25 11.925 2.25 11.625V1.125C2.25 0.825 2.3625 0.5625 2.5875 0.3375C2.8125 0.1125 3.075 0 3.375 0H11.625C11.925 0 12.1875 0.1125 12.4125 0.3375C12.6375 0.5625 12.75 0.825 12.75 1.125V11.625C12.75 11.925 12.6375 12.1875 12.4125 12.4125C12.1875 12.6375 11.925 12.75 11.625 12.75H3.375Z" fill="#333333"/>
</svg>
