<svg width="15" height="18" viewBox="0 0 15 18" fill="none" xmlns="http://www.w3.org/2000/svg">
<path d="M7.2 18C5.1 17.475 3.375 16.2563 2.025 14.3438C0.675 12.4312 0 10.335 0 8.055V2.7L7.2 0L14.4 2.7V8.055C14.4 10.335 13.725 12.4312 12.375 14.3438C11.025 16.2563 9.3 17.475 7.2 18ZM7.2 16.605C8.79 16.08 10.1063 15.1162 11.1488 13.7137C12.1913 12.3112 12.8025 10.74 12.9825 9H7.2V1.4625L1.35 3.645V8.055C1.35 8.235 1.35375 8.38875 1.36125 8.51625C1.36875 8.64375 1.3875 8.805 1.4175 9H7.2V16.605Z" fill="#333333"/>
</svg>
