<svg width="18" height="18" viewBox="0 0 18 18" fill="none" xmlns="http://www.w3.org/2000/svg">
<path d="M6.93 18L6.48 15.165C6.195 15.06 5.895 14.9175 5.58 14.7375C5.265 14.5575 4.9875 14.37 4.7475 14.175L2.0925 15.39L0 11.7L2.43 9.9225C2.4 9.7875 2.38125 9.63375 2.37375 9.46125C2.36625 9.28875 2.3625 9.135 2.3625 9C2.3625 8.865 2.36625 8.71125 2.37375 8.53875C2.38125 8.36625 2.4 8.2125 2.43 8.0775L0 6.3L2.0925 2.61L4.7475 3.825C4.9875 3.63 5.265 3.4425 5.58 3.2625C5.895 3.0825 6.195 2.9475 6.48 2.8575L6.93 0H11.07L11.52 2.835C11.805 2.94 12.1087 3.07875 12.4312 3.25125C12.7537 3.42375 13.0275 3.615 13.2525 3.825L15.9075 2.61L18 6.3L15.57 8.0325C15.6 8.1825 15.6187 8.34375 15.6262 8.51625C15.6337 8.68875 15.6375 8.85 15.6375 9C15.6375 9.15 15.6337 9.3075 15.6262 9.4725C15.6187 9.6375 15.6 9.795 15.57 9.945L18 11.7L15.9075 15.39L13.2525 14.175C13.0125 14.37 12.7387 14.5613 12.4312 14.7488C12.1237 14.9363 11.82 15.075 11.52 15.165L11.07 18H6.93ZM9 11.925C9.81 11.925 10.5 11.64 11.07 11.07C11.64 10.5 11.925 9.81 11.925 9C11.925 8.19 11.64 7.5 11.07 6.93C10.5 6.36 9.81 6.075 9 6.075C8.19 6.075 7.5 6.36 6.93 6.93C6.36 7.5 6.075 8.19 6.075 9C6.075 9.81 6.36 10.5 6.93 11.07C7.5 11.64 8.19 11.925 9 11.925Z" fill="#333333"/>
</svg>
