<svg width="15" height="12" viewBox="0 0 15 12" fill="none" xmlns="http://www.w3.org/2000/svg">
<path d="M1.125 12C0.825 12 0.5625 11.8875 0.3375 11.6625C0.1125 11.4375 0 11.175 0 10.875V6.5625H4.14375L5.49375 9.2625C5.54375 9.3625 5.61563 9.4375 5.70938 9.4875C5.80313 9.5375 5.9 9.5625 6 9.5625C6.1 9.5625 6.19687 9.5375 6.29062 9.4875C6.38437 9.4375 6.45625 9.3625 6.50625 9.2625L9 4.275L9.99375 6.2625C10.0437 6.3625 10.1156 6.4375 10.2094 6.4875C10.3031 6.5375 10.4 6.5625 10.5 6.5625H15V10.875C15 11.175 14.8875 11.4375 14.6625 11.6625C14.4375 11.8875 14.175 12 13.875 12H1.125ZM6 7.725L5.00625 5.7375C4.95625 5.6375 4.88437 5.5625 4.79062 5.5125C4.69687 5.4625 4.6 5.4375 4.5 5.4375H0V1.125C0 0.825 0.1125 0.5625 0.3375 0.3375C0.5625 0.1125 0.825 0 1.125 0H13.875C14.175 0 14.4375 0.1125 14.6625 0.3375C14.8875 0.5625 15 0.825 15 1.125V5.4375H10.8563L9.50625 2.75625C9.40625 2.56875 9.2375 2.475 9 2.475C8.7625 2.475 8.59375 2.56875 8.49375 2.75625L6 7.725Z" fill="#333333"/>
</svg>
