<svg width="17" height="17" viewBox="0 0 17 17" fill="none" xmlns="http://www.w3.org/2000/svg">
<path d="M8.5 7.96875C7.33125 7.96875 6.375 7.59688 5.63125 6.85313C4.8875 6.10938 4.51562 5.15313 4.51562 3.98438C4.51562 2.81563 4.8875 1.85938 5.63125 1.11563C6.375 0.371875 7.33125 0 8.5 0C9.66875 0 10.625 0.371875 11.3687 1.11563C12.1125 1.85938 12.4844 2.81563 12.4844 3.98438C12.4844 5.15313 12.1125 6.10938 11.3687 6.85313C10.625 7.59688 9.66875 7.96875 8.5 7.96875ZM0 16.4953V13.9984C0 13.3255 0.168229 12.75 0.504687 12.2719C0.841146 11.7937 1.275 11.4307 1.80625 11.1828C2.99271 10.6516 4.13047 10.2531 5.21953 9.9875C6.30859 9.72187 7.40208 9.58906 8.5 9.58906C9.59792 9.58906 10.687 9.7263 11.7672 10.0008C12.8474 10.2753 13.9807 10.6693 15.1672 11.1828C15.7161 11.4307 16.1589 11.7937 16.4953 12.2719C16.8318 12.75 17 13.3255 17 13.9984V16.4953H0Z" fill="#333333"/>
</svg>
