<svg width="30" height="26" viewBox="0 0 30 26" fill="none" xmlns="http://www.w3.org/2000/svg">
<path d="M12.1045 12.1028C15.4466 12.1028 18.1559 9.39347 18.1559 6.05139C18.1559 2.7093 15.4466 0 12.1045 0C8.76243 0 6.05313 2.7093 6.05313 6.05139C6.05313 9.39347 8.76243 12.1028 12.1045 12.1028Z" fill="#FF6100"/>
<path d="M13.1164 13.646C12.7836 13.6309 12.4507 13.6157 12.1028 13.6157C8.44168 13.6157 5.02265 14.6293 2.10286 16.3691C0.771552 17.1558 0 18.6384 0 20.1966V24.2056H14.009C12.8138 22.4961 12.1028 20.4084 12.1028 18.1543C12.1028 16.5355 12.481 15.0227 13.1164 13.646Z" fill="#FF6100"/>
<path d="M28.3654 18.1541C28.3654 17.8213 28.3201 17.5187 28.2747 17.201L29.9993 15.673L28.4865 13.0558L26.2928 13.7971C25.8087 13.3886 25.2641 13.0709 24.659 12.844L24.2051 10.5898H21.1794L20.7256 12.844C20.1204 13.0709 19.5758 13.3886 19.0917 13.7971L16.8981 13.0558L15.3852 15.673L17.1099 17.201C17.0645 17.5187 17.0191 17.8213 17.0191 18.1541C17.0191 18.4869 17.0645 18.7895 17.1099 19.1072L15.3852 20.6351L16.8981 23.2524L19.0917 22.5111C19.5758 22.9195 20.1204 23.2372 20.7256 23.4642L21.1794 25.7183H24.2051L24.659 23.4642C25.2641 23.2372 25.8087 22.9195 26.2928 22.5111L28.4865 23.2524L29.9993 20.6351L28.2747 19.1072C28.3201 18.7895 28.3654 18.4869 28.3654 18.1541ZM22.6923 21.1798C21.0281 21.1798 19.6666 19.8182 19.6666 18.1541C19.6666 16.4899 21.0281 15.1284 22.6923 15.1284C24.3564 15.1284 25.718 16.4899 25.718 18.1541C25.718 19.8182 24.3564 21.1798 22.6923 21.1798Z" fill="#FF9B00"/>
</svg>
