<svg width="17" height="17" viewBox="0 0 17 17" fill="none" xmlns="http://www.w3.org/2000/svg">
<path d="M8.5 8.21256C7.33125 8.21256 6.375 7.82931 5.63125 7.0628C4.8875 6.2963 4.51562 5.31079 4.51562 4.10628C4.51562 2.90177 4.8875 1.91626 5.63125 1.14976C6.375 0.383253 7.33125 0 8.5 0C9.66875 0 10.625 0.383253 11.3687 1.14976C12.1125 1.91626 12.4844 2.90177 12.4844 4.10628C12.4844 5.31079 12.1125 6.2963 11.3687 7.0628C10.625 7.82931 9.66875 8.21256 8.5 8.21256ZM0 17V14.4267C0 13.7332 0.168229 13.1401 0.504687 12.6473C0.841146 12.1546 1.275 11.7805 1.80625 11.525C2.99271 10.9775 4.13047 10.5668 5.21953 10.2931C6.30859 10.0193 7.40208 9.88245 8.5 9.88245C9.59792 9.88245 10.687 10.0239 11.7672 10.3068C12.8474 10.5896 13.9807 10.9957 15.1672 11.525C15.7161 11.7805 16.1589 12.1546 16.4953 12.6473C16.8318 13.1401 17 13.7332 17 14.4267V17H0Z" fill="#333333"/>
</svg>
