<svg width="14" height="17" viewBox="0 0 14 17" fill="none" xmlns="http://www.w3.org/2000/svg">
<path fill-rule="evenodd" clip-rule="evenodd" d="M0.3825 16.6175C0.6375 16.8725 0.935 17 1.275 17H12.325C12.665 17 12.9625 16.8725 13.2175 16.6175C13.4725 16.3625 13.6 16.065 13.6 15.725V4.65375L8.94625 0H1.275C0.935 0 0.6375 0.1275 0.3825 0.3825C0.1275 0.6375 0 0.935 0 1.275V15.725C0 16.065 0.1275 16.3625 0.3825 16.6175ZM12.2612 5.2275H8.30875V1.275L12.2612 5.2275ZM7.50352 13.175H9.775L8.02771 9.7409L9.66464 6.8H7.42995L6.76781 8.50791L6.19764 6.8H3.92616L5.48953 9.80484L3.825 13.175H6.06889L6.74942 11.1292L7.50352 13.175Z" fill="#333333"/>
</svg>
